<?xml version="1.0" encoding="UTF-8"?>
<svg xmlns="http://www.w3.org/2000/svg" viewBox="0 0 200 200" role="img">
  <defs>
    <radialGradient id="bg" cx="50%" cy="50%" r="55%">
      <stop offset="0%" stop-color="hsl(197,45%,12%)"/>
      <stop offset="100%" stop-color="hsl(197,55%,4%)"/>
    </radialGradient>
    <filter id="glow"><feGaussianBlur stdDeviation="2"/></filter>
  </defs>
  <rect width="200" height="200" fill="url(#bg)"/>
  <g filter="url(#glow)" opacity="0.55"><circle cx="100" cy="100" r="30" fill="none" stroke="#3a86ff" stroke-width="0.6" opacity="0.55"/><circle cx="100" cy="100" r="48" fill="none" stroke="#3a86ff" stroke-width="0.6" opacity="0.45"/><circle cx="100" cy="100" r="66" fill="none" stroke="#3a86ff" stroke-width="0.6" opacity="0.35"/><circle cx="100" cy="100" r="84" fill="none" stroke="#3a86ff" stroke-width="0.6" opacity="0.25"/><circle cx="100" cy="100" r="102" fill="none" stroke="#3a86ff" stroke-width="0.6" opacity="0.15"/></g>
  <polygon points="136.8,140.9 91.0,154.3 52.0,126.8 49.1,79.1 84.6,47.2 131.7,55.0 154.9,96.7" fill="none" stroke="#7209b7" stroke-width="2.2" opacity="0.85"/>
  <polygon points="136.8,140.9 91.0,154.3 52.0,126.8 49.1,79.1 84.6,47.2 131.7,55.0 154.9,96.7" fill="#480475" opacity="0.18"/>
  <circle cx="100" cy="100" r="6" fill="#3a86ff"/><circle cx="100" cy="100" r="14" fill="none" stroke="#3a86ff" stroke-width="1.2" opacity="0.8"/>
  <g><circle cx="106.3" cy="40.3" r="2" fill="#3a86ff" opacity="0.7"/><circle cx="156.2" cy="63.5" r="2" fill="#3a86ff" opacity="0.7"/><circle cx="170.4" cy="122.9" r="2" fill="#3a86ff" opacity="0.7"/><circle cx="129.0" cy="175.6" r="2" fill="#3a86ff" opacity="0.7"/><circle cx="56.0" cy="176.2" r="2" fill="#3a86ff" opacity="0.7"/><circle cx="35.8" cy="110.2" r="2" fill="#3a86ff" opacity="0.7"/><circle cx="46.5" cy="51.8" r="2" fill="#3a86ff" opacity="0.7"/></g>
</svg>
