<?xml version="1.0" encoding="UTF-8"?>
<svg xmlns="http://www.w3.org/2000/svg" viewBox="0 0 200 200" role="img">
  <defs>
    <radialGradient id="bg" cx="50%" cy="50%" r="55%">
      <stop offset="0%" stop-color="hsl(218,45%,12%)"/>
      <stop offset="100%" stop-color="hsl(218,55%,4%)"/>
    </radialGradient>
    <filter id="glow"><feGaussianBlur stdDeviation="2"/></filter>
  </defs>
  <rect width="200" height="200" fill="url(#bg)"/>
  <g filter="url(#glow)" opacity="0.55"><circle cx="100" cy="100" r="30" fill="none" stroke="#3a86ff" stroke-width="0.6" opacity="0.55"/><circle cx="100" cy="100" r="48" fill="none" stroke="#3a86ff" stroke-width="0.6" opacity="0.45"/><circle cx="100" cy="100" r="66" fill="none" stroke="#3a86ff" stroke-width="0.6" opacity="0.35"/></g>
  <polygon points="45.4,106.7 56.7,66.1 93.3,45.4 133.9,56.7 154.6,93.3 143.3,133.9 106.7,154.6 66.1,143.3" fill="none" stroke="#7209b7" stroke-width="2.2" opacity="0.85"/>
  <polygon points="45.4,106.7 56.7,66.1 93.3,45.4 133.9,56.7 154.6,93.3 143.3,133.9 106.7,154.6 66.1,143.3" fill="#480475" opacity="0.18"/>
  <circle cx="100" cy="100" r="6" fill="#3a86ff"/><circle cx="100" cy="100" r="14" fill="none" stroke="#3a86ff" stroke-width="1.2" opacity="0.8"/>
  <g><circle cx="41.8" cy="114.5" r="2" fill="#3a86ff" opacity="0.7"/><circle cx="46.5" cy="59.7" r="2" fill="#3a86ff" opacity="0.7"/><circle cx="97.4" cy="26.0" r="2" fill="#3a86ff" opacity="0.7"/><circle cx="161.1" cy="46.9" r="2" fill="#3a86ff" opacity="0.7"/><circle cx="186.7" cy="115.3" r="2" fill="#3a86ff" opacity="0.7"/><circle cx="131.5" cy="156.9" r="2" fill="#3a86ff" opacity="0.7"/><circle cx="73.0" cy="166.8" r="2" fill="#3a86ff" opacity="0.7"/></g>
</svg>
