<?xml version="1.0" encoding="UTF-8"?>
<svg xmlns="http://www.w3.org/2000/svg" viewBox="0 0 200 200" role="img">
  <defs>
    <radialGradient id="bg" cx="50%" cy="50%" r="55%">
      <stop offset="0%" stop-color="hsl(185,45%,12%)"/>
      <stop offset="100%" stop-color="hsl(185,55%,4%)"/>
    </radialGradient>
    <filter id="glow"><feGaussianBlur stdDeviation="2"/></filter>
  </defs>
  <rect width="200" height="200" fill="url(#bg)"/>
  <g filter="url(#glow)" opacity="0.55"><circle cx="100" cy="100" r="30" fill="none" stroke="#06d6a0" stroke-width="0.6" opacity="0.55"/><circle cx="100" cy="100" r="48" fill="none" stroke="#06d6a0" stroke-width="0.6" opacity="0.45"/><circle cx="100" cy="100" r="66" fill="none" stroke="#06d6a0" stroke-width="0.6" opacity="0.35"/></g>
  <polygon points="128.3,52.9 153.4,86.7 147.1,128.3 113.3,153.4 71.7,147.1 46.6,113.3 52.9,71.7 86.7,46.6" fill="none" stroke="#3a86ff" stroke-width="2.2" opacity="0.85"/>
  <polygon points="128.3,52.9 153.4,86.7 147.1,128.3 113.3,153.4 71.7,147.1 46.6,113.3 52.9,71.7 86.7,46.6" fill="#1f5cc4" opacity="0.18"/>
  <rect x="90" y="90" width="20" height="20" fill="#06d6a0" transform="rotate(45 100 100)"/>
  <g><circle cx="128.2" cy="153.0" r="2" fill="#06d6a0" opacity="0.7"/><circle cx="73.8" cy="161.7" r="2" fill="#06d6a0" opacity="0.7"/><circle cx="28.9" cy="120.4" r="2" fill="#06d6a0" opacity="0.7"/><circle cx="33.6" cy="53.5" r="2" fill="#06d6a0" opacity="0.7"/><circle cx="93.9" cy="12.2" r="2" fill="#06d6a0" opacity="0.7"/><circle cx="147.5" cy="55.7" r="2" fill="#06d6a0" opacity="0.7"/><circle cx="171.3" cy="110.0" r="2" fill="#06d6a0" opacity="0.7"/></g>
</svg>
