<?xml version="1.0" encoding="UTF-8"?>
<svg xmlns="http://www.w3.org/2000/svg" viewBox="0 0 200 200" role="img">
  <defs>
    <radialGradient id="bg" cx="50%" cy="50%" r="55%">
      <stop offset="0%" stop-color="hsl(224,45%,12%)"/>
      <stop offset="100%" stop-color="hsl(224,55%,4%)"/>
    </radialGradient>
    <filter id="glow"><feGaussianBlur stdDeviation="2"/></filter>
  </defs>
  <rect width="200" height="200" fill="url(#bg)"/>
  <g filter="url(#glow)" opacity="0.55"><circle cx="100" cy="100" r="30" fill="none" stroke="#06d6a0" stroke-width="0.6" opacity="0.55"/><circle cx="100" cy="100" r="48" fill="none" stroke="#06d6a0" stroke-width="0.6" opacity="0.45"/><circle cx="100" cy="100" r="66" fill="none" stroke="#06d6a0" stroke-width="0.6" opacity="0.35"/><circle cx="100" cy="100" r="84" fill="none" stroke="#06d6a0" stroke-width="0.6" opacity="0.25"/><circle cx="100" cy="100" r="102" fill="none" stroke="#06d6a0" stroke-width="0.6" opacity="0.15"/></g>
  <polygon points="82.1,152.0 45.0,99.0 83.9,47.4 145.1,68.5 143.9,133.1" fill="none" stroke="#118ab2" stroke-width="2.2" opacity="0.85"/>
  <polygon points="82.1,152.0 45.0,99.0 83.9,47.4 145.1,68.5 143.9,133.1" fill="#0a5d7a" opacity="0.18"/>
  <circle cx="100" cy="100" r="6" fill="#06d6a0"/><circle cx="100" cy="100" r="14" fill="none" stroke="#06d6a0" stroke-width="1.2" opacity="0.8"/>
  <g><circle cx="147.3" cy="136.9" r="2" fill="#06d6a0" opacity="0.7"/><circle cx="101.2" cy="167.0" r="2" fill="#06d6a0" opacity="0.7"/><circle cx="43.3" cy="147.6" r="2" fill="#06d6a0" opacity="0.7"/><circle cx="20.5" cy="84.5" r="2" fill="#06d6a0" opacity="0.7"/><circle cx="58.7" cy="22.3" r="2" fill="#06d6a0" opacity="0.7"/><circle cx="125.4" cy="40.2" r="2" fill="#06d6a0" opacity="0.7"/><circle cx="169.2" cy="80.2" r="2" fill="#06d6a0" opacity="0.7"/></g>
</svg>
