<?xml version="1.0" encoding="UTF-8"?>
<svg xmlns="http://www.w3.org/2000/svg" viewBox="0 0 200 200" role="img">
  <defs>
    <radialGradient id="bg" cx="50%" cy="50%" r="55%">
      <stop offset="0%" stop-color="hsl(221,45%,12%)"/>
      <stop offset="100%" stop-color="hsl(221,55%,4%)"/>
    </radialGradient>
    <filter id="glow"><feGaussianBlur stdDeviation="2"/></filter>
  </defs>
  <rect width="200" height="200" fill="url(#bg)"/>
  <g filter="url(#glow)" opacity="0.55"><circle cx="100" cy="100" r="30" fill="none" stroke="#ffd166" stroke-width="0.6" opacity="0.55"/><circle cx="100" cy="100" r="48" fill="none" stroke="#ffd166" stroke-width="0.6" opacity="0.45"/><circle cx="100" cy="100" r="66" fill="none" stroke="#ffd166" stroke-width="0.6" opacity="0.35"/></g>
  <polygon points="128.3,147.1 80.8,151.5 47.7,117.1 54.0,69.8 94.9,45.2 139.7,61.9 154.5,107.2" fill="none" stroke="#ff6b6b" stroke-width="2.2" opacity="0.85"/>
  <polygon points="128.3,147.1 80.8,151.5 47.7,117.1 54.0,69.8 94.9,45.2 139.7,61.9 154.5,107.2" fill="#c94646" opacity="0.18"/>
  <circle cx="100" cy="100" r="6" fill="#ffd166"/><circle cx="100" cy="100" r="14" fill="none" stroke="#ffd166" stroke-width="1.2" opacity="0.8"/>
  <g><circle cx="128.2" cy="47.0" r="2" fill="#ffd166" opacity="0.7"/><circle cx="165.8" cy="87.2" r="2" fill="#ffd166" opacity="0.7"/><circle cx="156.7" cy="147.6" r="2" fill="#ffd166" opacity="0.7"/><circle cx="98.6" cy="181.0" r="2" fill="#ffd166" opacity="0.7"/><circle cx="30.7" cy="154.2" r="2" fill="#ffd166" opacity="0.7"/><circle cx="36.7" cy="85.4" r="2" fill="#ffd166" opacity="0.7"/><circle cx="68.4" cy="35.3" r="2" fill="#ffd166" opacity="0.7"/></g>
</svg>
