<?xml version="1.0" encoding="UTF-8"?>
<svg xmlns="http://www.w3.org/2000/svg" viewBox="0 0 200 200" role="img">
  <defs>
    <radialGradient id="bg" cx="50%" cy="50%" r="55%">
      <stop offset="0%" stop-color="hsl(196,45%,12%)"/>
      <stop offset="100%" stop-color="hsl(196,55%,4%)"/>
    </radialGradient>
    <filter id="glow"><feGaussianBlur stdDeviation="2"/></filter>
  </defs>
  <rect width="200" height="200" fill="url(#bg)"/>
  <g filter="url(#glow)" opacity="0.55"><circle cx="100" cy="100" r="30" fill="none" stroke="#f15bb5" stroke-width="0.6" opacity="0.55"/><circle cx="100" cy="100" r="48" fill="none" stroke="#f15bb5" stroke-width="0.6" opacity="0.45"/><circle cx="100" cy="100" r="66" fill="none" stroke="#f15bb5" stroke-width="0.6" opacity="0.35"/><circle cx="100" cy="100" r="84" fill="none" stroke="#f15bb5" stroke-width="0.6" opacity="0.25"/><circle cx="100" cy="100" r="102" fill="none" stroke="#f15bb5" stroke-width="0.6" opacity="0.15"/></g>
  <polygon points="59.8,62.5 112.4,46.4 152.6,83.9 140.2,137.5 87.6,153.6 47.4,116.1" fill="none" stroke="#9b5de5" stroke-width="2.2" opacity="0.85"/>
  <polygon points="59.8,62.5 112.4,46.4 152.6,83.9 140.2,137.5 87.6,153.6 47.4,116.1" fill="#6c2eb5" opacity="0.18"/>
  <rect x="90" y="90" width="20" height="20" fill="#f15bb5" transform="rotate(45 100 100)"/>
  <g><circle cx="95.8" cy="40.1" r="2" fill="#f15bb5" opacity="0.7"/><circle cx="149.0" cy="54.3" r="2" fill="#f15bb5" opacity="0.7"/><circle cx="173.3" cy="110.3" r="2" fill="#f15bb5" opacity="0.7"/><circle cx="141.7" cy="169.4" r="2" fill="#f15bb5" opacity="0.7"/><circle cx="69.9" cy="182.7" r="2" fill="#f15bb5" opacity="0.7"/><circle cx="38.5" cy="121.2" r="2" fill="#f15bb5" opacity="0.7"/><circle cx="38.9" cy="61.8" r="2" fill="#f15bb5" opacity="0.7"/></g>
</svg>
