<?xml version="1.0" encoding="UTF-8"?>
<svg xmlns="http://www.w3.org/2000/svg" viewBox="0 0 200 200" role="img">
  <defs>
    <radialGradient id="bg" cx="50%" cy="50%" r="55%">
      <stop offset="0%" stop-color="hsl(332,45%,12%)"/>
      <stop offset="100%" stop-color="hsl(332,55%,4%)"/>
    </radialGradient>
    <filter id="glow"><feGaussianBlur stdDeviation="2"/></filter>
  </defs>
  <rect width="200" height="200" fill="url(#bg)"/>
  <g filter="url(#glow)" opacity="0.55"><circle cx="100" cy="100" r="30" fill="none" stroke="#118ab2" stroke-width="0.6" opacity="0.55"/><circle cx="100" cy="100" r="48" fill="none" stroke="#118ab2" stroke-width="0.6" opacity="0.45"/><circle cx="100" cy="100" r="66" fill="none" stroke="#118ab2" stroke-width="0.6" opacity="0.35"/></g>
  <polygon points="48.0,117.9 66.9,56.1 131.5,54.9 152.6,116.1 101.0,155.0" fill="none" stroke="#06d6a0" stroke-width="2.2" opacity="0.85"/>
  <polygon points="48.0,117.9 66.9,56.1 131.5,54.9 152.6,116.1 101.0,155.0" fill="#048967" opacity="0.18"/>
  <circle cx="100" cy="100" r="6" fill="#118ab2"/><circle cx="100" cy="100" r="14" fill="none" stroke="#118ab2" stroke-width="1.2" opacity="0.8"/>
  <g><circle cx="52.7" cy="136.9" r="2" fill="#118ab2" opacity="0.7"/><circle cx="34.7" cy="84.9" r="2" fill="#118ab2" opacity="0.7"/><circle cx="67.6" cy="33.5" r="2" fill="#118ab2" opacity="0.7"/><circle cx="134.2" cy="26.6" r="2" fill="#118ab2" opacity="0.7"/><circle cx="185.4" cy="78.7" r="2" fill="#118ab2" opacity="0.7"/><circle cx="151.9" cy="139.1" r="2" fill="#118ab2" opacity="0.7"/><circle cx="102.5" cy="172.0" r="2" fill="#118ab2" opacity="0.7"/></g>
</svg>
