<?xml version="1.0" encoding="UTF-8"?>
<svg xmlns="http://www.w3.org/2000/svg" viewBox="0 0 200 200" role="img">
  <defs>
    <radialGradient id="bg" cx="50%" cy="50%" r="55%">
      <stop offset="0%" stop-color="hsl(253,45%,12%)"/>
      <stop offset="100%" stop-color="hsl(253,55%,4%)"/>
    </radialGradient>
    <filter id="glow"><feGaussianBlur stdDeviation="2"/></filter>
  </defs>
  <rect width="200" height="200" fill="url(#bg)"/>
  <g filter="url(#glow)" opacity="0.55"><circle cx="100" cy="100" r="30" fill="none" stroke="#fee440" stroke-width="0.6" opacity="0.55"/><circle cx="100" cy="100" r="48" fill="none" stroke="#fee440" stroke-width="0.6" opacity="0.45"/><circle cx="100" cy="100" r="66" fill="none" stroke="#fee440" stroke-width="0.6" opacity="0.35"/></g>
  <polygon points="117.9,152.0 63.9,141.5 46.0,89.5 82.1,48.0 136.1,58.5 154.0,110.5" fill="none" stroke="#00bbf9" stroke-width="2.2" opacity="0.85"/>
  <polygon points="117.9,152.0 63.9,141.5 46.0,89.5 82.1,48.0 136.1,58.5 154.0,110.5" fill="#0085bb" opacity="0.18"/>
  <circle cx="100" cy="100" r="6" fill="#fee440"/><circle cx="100" cy="100" r="14" fill="none" stroke="#fee440" stroke-width="1.2" opacity="0.8"/>
  <g><circle cx="147.3" cy="63.1" r="2" fill="#fee440" opacity="0.7"/><circle cx="165.3" cy="115.1" r="2" fill="#fee440" opacity="0.7"/><circle cx="132.4" cy="166.5" r="2" fill="#fee440" opacity="0.7"/><circle cx="65.8" cy="173.4" r="2" fill="#fee440" opacity="0.7"/><circle cx="14.6" cy="121.3" r="2" fill="#fee440" opacity="0.7"/><circle cx="48.1" cy="60.9" r="2" fill="#fee440" opacity="0.7"/><circle cx="97.5" cy="28.0" r="2" fill="#fee440" opacity="0.7"/></g>
</svg>
