<svg xmlns="http://www.w3.org/2000/svg" viewBox="0 0 512 512">
  <rect width="512" height="512" rx="96" fill="#1e1e2e"/>
  <circle cx="256" cy="256" r="150" fill="none" stroke="url(#g)" stroke-width="20"/>
  <circle cx="256" cy="256" r="16" fill="#cba6f7"/>
  <circle cx="128" cy="128" r="14" fill="#89b4fa"/>
  <circle cx="384" cy="128" r="14" fill="#89b4fa"/>
  <circle cx="128" cy="384" r="14" fill="#89b4fa"/>
  <circle cx="384" cy="384" r="14" fill="#89b4fa"/>
  <circle cx="256" cy="80" r="10" fill="#a6e3a1"/>
  <circle cx="256" cy="432" r="10" fill="#a6e3a1"/>
  <circle cx="80" cy="256" r="10" fill="#a6e3a1"/>
  <circle cx="432" cy="256" r="10" fill="#a6e3a1"/>
  <line x1="256" y1="256" x2="128" y2="128" stroke="#89b4fa" stroke-width="5" opacity="0.5"/>
  <line x1="256" y1="256" x2="384" y2="128" stroke="#89b4fa" stroke-width="5" opacity="0.5"/>
  <line x1="256" y1="256" x2="128" y2="384" stroke="#89b4fa" stroke-width="5" opacity="0.5"/>
  <line x1="256" y1="256" x2="384" y2="384" stroke="#89b4fa" stroke-width="5" opacity="0.5"/>
  <line x1="256" y1="256" x2="256" y2="80" stroke="#a6e3a1" stroke-width="3" opacity="0.4"/>
  <line x1="256" y1="256" x2="256" y2="432" stroke="#a6e3a1" stroke-width="3" opacity="0.4"/>
  <line x1="256" y1="256" x2="80" y2="256" stroke="#a6e3a1" stroke-width="3" opacity="0.4"/>
  <line x1="256" y1="256" x2="432" y2="256" stroke="#a6e3a1" stroke-width="3" opacity="0.4"/>
  <defs>
    <linearGradient id="g" x1="0" y1="0" x2="1" y2="1">
      <stop offset="0%" stop-color="#cba6f7"/>
      <stop offset="100%" stop-color="#89b4fa"/>
    </linearGradient>
  </defs>
</svg>
