<?xml version="1.0" encoding="UTF-8"?>
<svg xmlns="http://www.w3.org/2000/svg" viewBox="0 0 200 200" role="img">
  <defs>
    <radialGradient id="bg" cx="50%" cy="50%" r="55%">
      <stop offset="0%" stop-color="hsl(127,45%,12%)"/>
      <stop offset="100%" stop-color="hsl(127,55%,4%)"/>
    </radialGradient>
    <filter id="glow"><feGaussianBlur stdDeviation="2"/></filter>
  </defs>
  <rect width="200" height="200" fill="url(#bg)"/>
  <g filter="url(#glow)" opacity="0.55"><circle cx="100" cy="100" r="30" fill="none" stroke="#118ab2" stroke-width="0.6" opacity="0.55"/><circle cx="100" cy="100" r="48" fill="none" stroke="#118ab2" stroke-width="0.6" opacity="0.45"/><circle cx="100" cy="100" r="66" fill="none" stroke="#118ab2" stroke-width="0.6" opacity="0.35"/><circle cx="100" cy="100" r="84" fill="none" stroke="#118ab2" stroke-width="0.6" opacity="0.25"/></g>
  <polygon points="83.0,47.7 130.3,54.1 154.8,95.1 138.0,139.8 92.6,154.5 52.8,128.2 48.5,80.7" fill="none" stroke="#06d6a0" stroke-width="2.2" opacity="0.85"/>
  <polygon points="83.0,47.7 130.3,54.1 154.8,95.1 138.0,139.8 92.6,154.5 52.8,128.2 48.5,80.7" fill="#048967" opacity="0.18"/>
  <rect x="90" y="90" width="20" height="20" fill="#118ab2" transform="rotate(45 100 100)"/>
  <g><circle cx="148.5" cy="64.7" r="2" fill="#118ab2" opacity="0.7"/><circle cx="164.7" cy="117.3" r="2" fill="#118ab2" opacity="0.7"/><circle cx="130.1" cy="167.6" r="2" fill="#118ab2" opacity="0.7"/><circle cx="63.2" cy="172.2" r="2" fill="#118ab2" opacity="0.7"/><circle cx="13.9" cy="118.3" r="2" fill="#118ab2" opacity="0.7"/><circle cx="49.5" cy="59.1" r="2" fill="#118ab2" opacity="0.7"/><circle cx="100.0" cy="28.0" r="2" fill="#118ab2" opacity="0.7"/></g>
</svg>
