<?xml version="1.0" encoding="UTF-8"?>
<svg xmlns="http://www.w3.org/2000/svg" viewBox="0 0 200 200" role="img">
  <defs>
    <radialGradient id="bg" cx="50%" cy="50%" r="55%">
      <stop offset="0%" stop-color="hsl(337,45%,12%)"/>
      <stop offset="100%" stop-color="hsl(337,55%,4%)"/>
    </radialGradient>
    <filter id="glow"><feGaussianBlur stdDeviation="2"/></filter>
  </defs>
  <rect width="200" height="200" fill="url(#bg)"/>
  <g filter="url(#glow)" opacity="0.55"><circle cx="100" cy="100" r="30" fill="none" stroke="#06d6a0" stroke-width="0.6" opacity="0.55"/><circle cx="100" cy="100" r="48" fill="none" stroke="#06d6a0" stroke-width="0.6" opacity="0.45"/><circle cx="100" cy="100" r="66" fill="none" stroke="#06d6a0" stroke-width="0.6" opacity="0.35"/><circle cx="100" cy="100" r="84" fill="none" stroke="#06d6a0" stroke-width="0.6" opacity="0.25"/></g>
  <polygon points="154.6,106.7 128.8,146.9 81.3,151.7 47.9,117.6 53.7,70.3 94.4,45.3 139.3,61.5" fill="none" stroke="#3a86ff" stroke-width="2.2" opacity="0.85"/>
  <polygon points="154.6,106.7 128.8,146.9 81.3,151.7 47.9,117.6 53.7,70.3 94.4,45.3 139.3,61.5" fill="#1f5cc4" opacity="0.18"/>
  <rect x="90" y="90" width="20" height="20" fill="#06d6a0" transform="rotate(45 100 100)"/>
  <g><circle cx="41.8" cy="85.5" r="2" fill="#06d6a0" opacity="0.7"/><circle cx="71.7" cy="39.3" r="2" fill="#06d6a0" opacity="0.7"/><circle cx="132.4" cy="33.5" r="2" fill="#06d6a0" opacity="0.7"/><circle cx="178.9" cy="81.8" r="2" fill="#06d6a0" opacity="0.7"/><circle cx="169.3" cy="154.2" r="2" fill="#06d6a0" opacity="0.7"/><circle cx="101.1" cy="165.0" r="2" fill="#06d6a0" opacity="0.7"/><circle cx="44.8" cy="146.3" r="2" fill="#06d6a0" opacity="0.7"/></g>
</svg>
