<?xml version="1.0" encoding="UTF-8"?>
<svg xmlns="http://www.w3.org/2000/svg" viewBox="0 0 200 200" role="img">
  <defs>
    <radialGradient id="bg" cx="50%" cy="50%" r="55%">
      <stop offset="0%" stop-color="hsl(304,45%,12%)"/>
      <stop offset="100%" stop-color="hsl(304,55%,4%)"/>
    </radialGradient>
    <filter id="glow"><feGaussianBlur stdDeviation="2"/></filter>
  </defs>
  <rect width="200" height="200" fill="url(#bg)"/>
  <g filter="url(#glow)" opacity="0.55"><circle cx="100" cy="100" r="30" fill="none" stroke="#118ab2" stroke-width="0.6" opacity="0.55"/><circle cx="100" cy="100" r="48" fill="none" stroke="#118ab2" stroke-width="0.6" opacity="0.45"/><circle cx="100" cy="100" r="66" fill="none" stroke="#118ab2" stroke-width="0.6" opacity="0.35"/></g>
  <polygon points="130.8,145.6 83.5,152.5 48.7,119.8 52.5,72.3 92.1,45.6 137.6,59.9 154.8,104.4" fill="none" stroke="#06d6a0" stroke-width="2.2" opacity="0.85"/>
  <polygon points="130.8,145.6 83.5,152.5 48.7,119.8 52.5,72.3 92.1,45.6 137.6,59.9 154.8,104.4" fill="#048967" opacity="0.18"/>
  <rect x="90" y="90" width="20" height="20" fill="#118ab2" transform="rotate(45 100 100)"/>
  <g><circle cx="122.5" cy="44.4" r="2" fill="#118ab2" opacity="0.7"/><circle cx="164.1" cy="80.4" r="2" fill="#118ab2" opacity="0.7"/><circle cx="161.3" cy="141.4" r="2" fill="#118ab2" opacity="0.7"/><circle cx="107.1" cy="180.7" r="2" fill="#118ab2" opacity="0.7"/><circle cx="36.7" cy="161.1" r="2" fill="#118ab2" opacity="0.7"/><circle cx="35.5" cy="92.1" r="2" fill="#118ab2" opacity="0.7"/><circle cx="61.8" cy="38.9" r="2" fill="#118ab2" opacity="0.7"/></g>
</svg>
