<?xml version="1.0" encoding="UTF-8"?>
<svg xmlns="http://www.w3.org/2000/svg" viewBox="0 0 200 200" role="img">
  <defs>
    <radialGradient id="bg" cx="50%" cy="50%" r="55%">
      <stop offset="0%" stop-color="hsl(139,45%,12%)"/>
      <stop offset="100%" stop-color="hsl(139,55%,4%)"/>
    </radialGradient>
    <filter id="glow"><feGaussianBlur stdDeviation="2"/></filter>
  </defs>
  <rect width="200" height="200" fill="url(#bg)"/>
  <g filter="url(#glow)" opacity="0.55"><circle cx="100" cy="100" r="30" fill="none" stroke="#118ab2" stroke-width="0.6" opacity="0.55"/><circle cx="100" cy="100" r="48" fill="none" stroke="#118ab2" stroke-width="0.6" opacity="0.45"/><circle cx="100" cy="100" r="66" fill="none" stroke="#118ab2" stroke-width="0.6" opacity="0.35"/><circle cx="100" cy="100" r="84" fill="none" stroke="#118ab2" stroke-width="0.6" opacity="0.25"/><circle cx="100" cy="100" r="102" fill="none" stroke="#118ab2" stroke-width="0.6" opacity="0.15"/></g>
  <polygon points="151.0,120.6 115.7,152.7 68.6,145.1 45.1,103.6 63.0,59.3 108.7,45.7 147.9,73.0" fill="none" stroke="#06d6a0" stroke-width="2.2" opacity="0.85"/>
  <polygon points="151.0,120.6 115.7,152.7 68.6,145.1 45.1,103.6 63.0,59.3 108.7,45.7 147.9,73.0" fill="#048967" opacity="0.18"/>
  <rect x="90" y="90" width="20" height="20" fill="#118ab2" transform="rotate(45 100 100)"/>
  <g><circle cx="56.8" cy="58.3" r="2" fill="#118ab2" opacity="0.7"/><circle cx="105.8" cy="33.3" r="2" fill="#118ab2" opacity="0.7"/><circle cx="161.3" cy="58.6" r="2" fill="#118ab2" opacity="0.7"/><circle cx="177.5" cy="123.7" r="2" fill="#118ab2" opacity="0.7"/><circle cx="133.0" cy="181.6" r="2" fill="#118ab2" opacity="0.7"/><circle cx="68.5" cy="156.9" r="2" fill="#118ab2" opacity="0.7"/><circle cx="29.1" cy="112.5" r="2" fill="#118ab2" opacity="0.7"/></g>
</svg>
