<?xml version="1.0" encoding="UTF-8"?>
<svg xmlns="http://www.w3.org/2000/svg" viewBox="0 0 200 200" role="img">
  <defs>
    <radialGradient id="bg" cx="50%" cy="50%" r="55%">
      <stop offset="0%" stop-color="hsl(270,45%,12%)"/>
      <stop offset="100%" stop-color="hsl(270,55%,4%)"/>
    </radialGradient>
    <filter id="glow"><feGaussianBlur stdDeviation="2"/></filter>
  </defs>
  <rect width="200" height="200" fill="url(#bg)"/>
  <g filter="url(#glow)" opacity="0.55"><circle cx="100" cy="100" r="30" fill="none" stroke="#3a86ff" stroke-width="0.6" opacity="0.55"/><circle cx="100" cy="100" r="48" fill="none" stroke="#3a86ff" stroke-width="0.6" opacity="0.45"/><circle cx="100" cy="100" r="66" fill="none" stroke="#3a86ff" stroke-width="0.6" opacity="0.35"/><circle cx="100" cy="100" r="84" fill="none" stroke="#3a86ff" stroke-width="0.6" opacity="0.25"/><circle cx="100" cy="100" r="102" fill="none" stroke="#3a86ff" stroke-width="0.6" opacity="0.15"/></g>
  <polygon points="118.8,48.3 155.0,101.9 115.2,152.9 54.4,130.8 56.7,66.1" fill="none" stroke="#7209b7" stroke-width="2.2" opacity="0.85"/>
  <polygon points="118.8,48.3 155.0,101.9 115.2,152.9 54.4,130.8 56.7,66.1" fill="#480475" opacity="0.18"/>
  <circle cx="100" cy="100" r="10" fill="#3a86ff"/>
  <g><circle cx="146.0" cy="138.6" r="2" fill="#3a86ff" opacity="0.7"/><circle cx="98.8" cy="167.0" r="2" fill="#3a86ff" opacity="0.7"/><circle cx="41.7" cy="145.6" r="2" fill="#3a86ff" opacity="0.7"/><circle cx="21.1" cy="81.8" r="2" fill="#3a86ff" opacity="0.7"/><circle cx="61.4" cy="20.9" r="2" fill="#3a86ff" opacity="0.7"/><circle cx="127.5" cy="41.1" r="2" fill="#3a86ff" opacity="0.7"/><circle cx="169.9" cy="82.6" r="2" fill="#3a86ff" opacity="0.7"/></g>
</svg>
